<?xml version="1.0" encoding="UTF-8" standalone="no"?>
<svg
   xmlns:dc="http://purl.org/dc/elements/1.1/"
   xmlns:cc="http://creativecommons.org/ns#"
   xmlns:rdf="http://www.w3.org/1999/02/22-rdf-syntax-ns#"
   xmlns:svg="http://www.w3.org/2000/svg"
   xmlns="http://www.w3.org/2000/svg"
   id="svg8"
   version="1.1"
   viewBox="0 0 297 210"
   height="210mm"
   width="297mm">
  <defs
     id="defs2" />
  <metadata
     id="metadata5">
    <rdf:RDF>
      <cc:Work
         rdf:about="">
        <dc:format>image/svg+xml</dc:format>
        <dc:type
           rdf:resource="http://purl.org/dc/dcmitype/StillImage" />
        <dc:title></dc:title>
      </cc:Work>
    </rdf:RDF>
  </metadata>
  <g
     transform="translate(0,-87)"
     id="layer1">
    <path
       transform="scale(0.26458333)"
       id="path4624"
       d=""
       style="opacity:0.99299999;fill:#000000;fill-opacity:0.96482412;stroke:#000000;stroke-width:0.50587165;stroke-miterlimit:4;stroke-dasharray:none;stroke-dashoffset:0;stroke-opacity:0" />
    <path
       transform="scale(0.26458333)"
       id="path4626"
       d=""
       style="opacity:0.99299999;fill:#000000;fill-opacity:0.96482412;stroke:#000000;stroke-width:0.50587165;stroke-miterlimit:4;stroke-dasharray:none;stroke-dashoffset:0;stroke-opacity:0" />
    <path
       transform="scale(0.26458333)"
       id="path4630"
       d=""
       style="opacity:0.99299999;fill:#000000;fill-opacity:0.96482412;stroke:#000000;stroke-width:0.50587165;stroke-miterlimit:4;stroke-dasharray:none;stroke-dashoffset:0;stroke-opacity:0" />
    <path
       transform="scale(0.26458333)"
       id="path4698"
       d=""
       style="opacity:0.99299999;fill:#000000;fill-opacity:0.96482412;stroke:#000000;stroke-width:0.03129921;stroke-miterlimit:4;stroke-dasharray:none;stroke-dashoffset:0;stroke-opacity:0" />
    <path
       transform="scale(0.26458333)"
       id="path4708"
       d=""
       style="opacity:0.99299999;fill:#000000;fill-opacity:0.96482412;stroke:#000000;stroke-width:0.0039124;stroke-miterlimit:4;stroke-dasharray:none;stroke-dashoffset:0;stroke-opacity:0" />
    <g
       id="g5014">
      <ellipse
         style="opacity:0;fill:#ffffff;fill-opacity:1;stroke:#040000;stroke-width:0.26458332;stroke-opacity:1"
         id="path4504"
         cx="107.64152"
         cy="146.31853"
         rx="38.931545"
         ry="20.410715" />
      <ellipse
         style="opacity:0;fill:#ffffff;fill-opacity:1;stroke:#040000;stroke-width:0.26458332;stroke-opacity:1"
         id="path4506"
         cx="104.07475"
         cy="155.24023"
         rx="34.745037"
         ry="18.708866" />
      <ellipse
         style="opacity:0;fill:#ffffff;fill-opacity:1;stroke:#040000;stroke-width:0.26458332;stroke-opacity:1"
         id="path4508"
         cx="177.30661"
         cy="169.67279"
         rx="24.588797"
         ry="9.0871639" />
      <ellipse
         style="opacity:0.99299999;fill:#0e090f;fill-opacity:0.38693465;stroke:#040000;stroke-width:0.26499999;stroke-miterlimit:4;stroke-dasharray:none;stroke-opacity:1"
         id="path4510"
         cx="113.42918"
         cy="135.99684"
         rx="41.426773"
         ry="15.501633" />
      <ellipse
         style="opacity:0.99299999;fill:#ffffff;fill-opacity:1;stroke:#040000;stroke-width:0.26499999;stroke-miterlimit:4;stroke-dasharray:none;stroke-opacity:1"
         id="path4512"
         cx="91.245811"
         cy="178.75995"
         rx="24.054256"
         ry="9.6217022" />
      <ellipse
         style="opacity:0.99299999;fill:#ffffff;fill-opacity:1;stroke:#040000;stroke-width:0.26499999;stroke-miterlimit:4;stroke-dasharray:none;stroke-opacity:1"
         id="path4514"
         cx="213.38799"
         cy="161.38744"
         rx="22.183371"
         ry="10.423512" />
      <ellipse
         style="opacity:0.99299999;fill:#ffffff;fill-opacity:1;stroke:#040000;stroke-width:0.26499999;stroke-miterlimit:4;stroke-dasharray:none;stroke-opacity:1"
         id="path4516"
         cx="211.51711"
         cy="229.54115"
         rx="36.348656"
         ry="14.432554" />
      <ellipse
         style="opacity:0.99299999;fill:#ffffff;fill-opacity:1;stroke:#040000;stroke-width:0.26499999;stroke-miterlimit:4;stroke-dasharray:none;stroke-opacity:1"
         id="path4518"
         cx="112.09283"
         cy="230.8775"
         rx="40.090431"
         ry="12.027128" />
      <ellipse
         style="opacity:0.99299999;fill:#ffffff;fill-opacity:1;stroke:#040000;stroke-width:0.26499999;stroke-miterlimit:4;stroke-dasharray:none;stroke-opacity:1"
         id="path4520"
         cx="158.0632"
         cy="192.65797"
         rx="35.279575"
         ry="12.294398" />
      <text
         xml:space="preserve"
         style="font-style:normal;font-weight:normal;font-size:10.58333302px;line-height:1.25;font-family:sans-serif;letter-spacing:0px;word-spacing:0px;fill:#000000;fill-opacity:1;stroke:none;stroke-width:0.26458332"
         x="86.969505"
         y="139.20407"
         id="text4526"><tspan
           id="tspan4524"
           x="86.969505"
           y="139.20407"
           style="stroke-width:0.26458332">Создается</tspan></text>
      <text
         xml:space="preserve"
         style="font-style:normal;font-weight:normal;font-size:10.58333302px;line-height:1.25;font-family:sans-serif;letter-spacing:0px;word-spacing:0px;fill:#000000;fill-opacity:1;stroke:none;stroke-width:0.26458332"
         x="196.55002"
         y="164.86194"
         id="text4530"><tspan
           id="tspan4528"
           x="196.55002"
           y="164.86194"
           style="stroke-width:0.26458332">Зомби</tspan></text>
      <text
         xml:space="preserve"
         style="font-style:normal;font-weight:normal;font-size:10.58333302px;line-height:1.25;font-family:sans-serif;letter-spacing:0px;word-spacing:0px;fill:#000000;fill-opacity:1;stroke:none;stroke-width:0.26458332"
         x="75.209641"
         y="182.50174"
         id="text4534"><tspan
           id="tspan4532"
           x="75.209641"
           y="182.50174"
           style="stroke-width:0.26458332">Готов</tspan></text>
      <text
         xml:space="preserve"
         style="font-style:normal;font-weight:normal;font-size:9.85062408px;line-height:1.25;font-family:sans-serif;letter-spacing:0px;word-spacing:0px;fill:#000000;fill-opacity:1;stroke:none;stroke-width:0.24626558"
         x="135.51147"
         y="182.30499"
         id="text4538"
         transform="scale(0.93076763,1.074382)"><tspan
           id="tspan4536"
           x="135.51147"
           y="182.30499"
           style="stroke-width:0.24626558">Выполняется</tspan></text>
      <text
         xml:space="preserve"
         style="font-style:normal;font-weight:normal;font-size:10.58333302px;line-height:1.25;font-family:sans-serif;letter-spacing:0px;word-spacing:0px;fill:#000000;fill-opacity:1;stroke:none;stroke-width:0.26458332"
         x="87.504044"
         y="233.28293"
         id="text4542"><tspan
           id="tspan4540"
           x="87.504044"
           y="233.28293"
           style="stroke-width:0.26458332">Ожидает</tspan></text>
      <text
         xml:space="preserve"
         style="font-style:normal;font-weight:normal;font-size:10.58333302px;line-height:1.25;font-family:sans-serif;letter-spacing:0px;word-spacing:0px;fill:#000000;fill-opacity:1;stroke:none;stroke-width:0.26458332"
         x="178.3757"
         y="232.7484"
         id="text4546"><tspan
           id="tspan4544"
           x="178.3757"
           y="232.7484"
           style="stroke-width:0.26458332">Остановлен</tspan></text>
      <path
         style="fill:none;stroke:#000000;stroke-width:0.26458332px;stroke-linecap:butt;stroke-linejoin:miter;stroke-opacity:1"
         d="M 103.54021,150.96393 C 90.711276,169.13826 90.711276,169.13826 90.711276,169.13826 H 90.176739"
         id="path4550" />
      <path
         style="fill:none;stroke:#000000;stroke-width:0.26458332px;stroke-linecap:butt;stroke-linejoin:miter;stroke-opacity:1"
         d="M 102.47113,218.31585 C 88.57312,188.38166 88.57312,188.38166 88.57312,188.38166 h 0.534541"
         id="path4552" />
      <path
         style="fill:none;stroke:#000000;stroke-width:0.26458332px;stroke-linecap:butt;stroke-linejoin:miter;stroke-opacity:0"
         d="m 122.78362,189.98528 c -11.75986,-5.87993 -11.75986,-5.87993 -11.75986,-5.87993 v 0"
         id="path4554" />
      <path
         style="fill:none;stroke:#000000;stroke-width:0.26458332px;stroke-linecap:butt;stroke-linejoin:miter;stroke-opacity:1"
         d="M 174.63391,228.47209 C 99.798443,187.84713 99.798443,187.84713 99.798443,187.84713"
         id="path4556" />
      <path
         style="fill:none;stroke:#000000;stroke-width:0.27168897;stroke-linecap:butt;stroke-linejoin:miter;stroke-miterlimit:4;stroke-dasharray:1.63013388, 1.63013388;stroke-dashoffset:0;stroke-opacity:1"
         d="m 151.65145,233.21331 c 42.63671,71.91878 140.86703,34.62298 81.73645,-67.28008 v 0"
         id="path4558" />
      <path
         style="fill:none;stroke:#000000;stroke-width:0.26458332;stroke-linecap:butt;stroke-linejoin:miter;stroke-miterlimit:4;stroke-dasharray:1.5874999, 1.5874999;stroke-dashoffset:0;stroke-opacity:1"
         d="m 102.47113,170.20734 c 88.19895,-8.55263 88.19895,-8.55263 88.19895,-8.55263 v 0"
         id="path4560" />
      <path
         style="fill:none;stroke:#000000;stroke-width:0.26458332;stroke-linecap:butt;stroke-linejoin:miter;stroke-miterlimit:4;stroke-dasharray:1.5874999, 1.5874999;stroke-dashoffset:0;stroke-opacity:1"
         d="m 191.20462,189.45074 c 9.6217,-19.2434 9.6217,-19.77794 9.6217,-19.77794"
         id="path4562" />
      <path
         style="fill:none;stroke:#000000;stroke-width:0.26458332;stroke-linecap:butt;stroke-linejoin:miter;stroke-miterlimit:4;stroke-dasharray:1.5874999, 1.5874999;stroke-dashoffset:0;stroke-opacity:1"
         d="m 216.8625,171.27641 -6.94901,43.29767"
         id="path4564" />
      <path
         style="fill:none;stroke:#000000;stroke-width:0.26499999;stroke-linecap:butt;stroke-linejoin:miter;stroke-miterlimit:4;stroke-dasharray:none;stroke-opacity:1"
         d="m 111.02376,184.10535 c 21.38156,0.53454 22.45064,0 22.45064,0"
         id="path4566" />
      <path
         style="fill:none;stroke:#000000;stroke-width:0.26458332px;stroke-linecap:butt;stroke-linejoin:miter;stroke-opacity:1"
         d="m 90.711276,169.13826 4.646027,-2.78699 -3.968751,-1.51191 z"
         id="path4572" />
      <path
         style="opacity:0.99299999;fill:#000000;fill-opacity:0.38693465;stroke:#000000;stroke-width:0.1892857;stroke-miterlimit:4;stroke-dasharray:none;stroke-dashoffset:0;stroke-opacity:0"
         d="m 92.485956,167.03335 c 0.437475,-0.62366 0.889392,-1.13009 1.00426,-1.1254 0.114869,0.005 0.459743,0.11555 0.766387,0.24637 l 0.55754,0.23784 -1.461933,0.88756 c -0.804064,0.48816 -1.506874,0.88756 -1.561796,0.88756 -0.05493,0 0.258069,-0.51027 0.695542,-1.13393 z"
         id="path4574" />
      <path
         style="opacity:0.99299999;fill:#000000;fill-opacity:0.38693465;stroke:#000000;stroke-width:0.1892857;stroke-miterlimit:4;stroke-dasharray:none;stroke-dashoffset:0;stroke-opacity:0"
         d="m 91.206815,167.41133 c 0.05771,-0.3638 0.160546,-1.0229 0.22852,-1.46466 0.06798,-0.44176 0.154639,-0.8032 0.192583,-0.8032 0.07305,0 1.077319,0.42138 1.196072,0.50186 0.06755,0.0458 -1.179512,1.85492 -1.543002,2.23847 -0.11375,0.12003 -0.140817,-0.0524 -0.07417,-0.47247 z"
         id="path4576" />
      <path
         style="opacity:0.99299999;fill:#000000;fill-opacity:0.38693465;stroke:#000000;stroke-width:0.1892857;stroke-miterlimit:4;stroke-dasharray:none;stroke-dashoffset:0;stroke-opacity:0"
         d="m 91.287036,167.10994 c -0.04874,-0.25497 -0.007,-0.51404 0.09282,-0.57572 0.09979,-0.0617 0.142129,-0.31779 0.09408,-0.56914 -0.06006,-0.31421 0.02297,-0.51606 0.265687,-0.64596 0.239054,-0.12794 0.353047,-0.12578 0.353047,0.007 0,0.1076 0.127566,0.19564 0.283482,0.19564 0.39107,0 0.357452,0.18138 -0.1803,0.97275 -0.255082,0.37539 -0.421502,0.7248 -0.369827,0.77648 0.05168,0.0517 -0.02852,0.14095 -0.178204,0.1984 -0.180597,0.0693 -0.30198,-0.0515 -0.360784,-0.35914 z"
         id="path4578" />
      <path
         style="opacity:0.99299999;fill:#000000;fill-opacity:0.38693465;stroke:#000000;stroke-width:0.1892857;stroke-miterlimit:4;stroke-dasharray:none;stroke-dashoffset:0;stroke-opacity:0"
         d="m 92.663124,166.93379 c 0.523967,-0.76156 0.660188,-0.8507 1.240311,-0.81163 0.358438,0.0241 0.622528,0.13141 0.586868,0.23838 -0.0683,0.20488 -2.006181,1.42664 -2.264972,1.42799 -0.08295,5.2e-4 0.114056,-0.38421 0.437793,-0.85474 z"
         id="path4580" />
      <path
         style="fill:none;stroke:#000000;stroke-width:0.26458332px;stroke-linecap:butt;stroke-linejoin:miter;stroke-opacity:1"
         d="m 114.25611,175.98966 c 29.10417,5.29167 28.91518,5.29167 28.91518,5.29167"
         id="path4582" />
      <path
         style="fill:none;stroke:#000000;stroke-width:0.26458332px;stroke-linecap:butt;stroke-linejoin:miter;stroke-opacity:1"
         d="m 111.02376,184.10535 3.23235,2.27866 0.75595,-3.59078 z"
         id="path4584" />
      <path
         style="fill:none;stroke:#000000;stroke-width:0.26458332px;stroke-linecap:butt;stroke-linejoin:miter;stroke-opacity:1"
         d="m 143.17128,181.28133 v 0 l -3.0238,-2.45685 -1.13393,2.64584 z"
         id="path4586" />
      <path
         style="fill:none;stroke:#000000;stroke-width:0.26458332px;stroke-linecap:butt;stroke-linejoin:miter;stroke-opacity:1"
         d="m 88.57312,188.38166 -0.113882,2.44357 1.984375,-0.75596 z"
         id="path4588" />
      <path
         style="fill:none;stroke:#000000;stroke-width:0.26458332px;stroke-linecap:butt;stroke-linejoin:miter;stroke-opacity:1"
         d="m 99.798443,187.84713 0.756027,1.93866 1.6064,-1.98437 z"
         id="path4590" />
      <path
         style="fill:none;stroke:#000000;stroke-width:0.26458332px;stroke-linecap:butt;stroke-linejoin:miter;stroke-opacity:1"
         d="m 189.37888,163.04398 v 0 l 1.2912,-1.38927 -1.85816,-1.35106 v 0.0945"
         id="path4592" />
      <path
         style="fill:none;stroke:#000000;stroke-width:0.26458332px;stroke-linecap:butt;stroke-linejoin:miter;stroke-opacity:1"
         d="m 198.16683,170.6035 v 0 l 2.65949,-0.9307 0.55331,2.44261 v 0"
         id="path4594" />
      <path
         style="fill:none;stroke:#000000;stroke-width:0.26458332px;stroke-linecap:butt;stroke-linejoin:miter;stroke-opacity:1"
         d="m 214.79778,173.34383 c 0,0 -0.18899,0 2.06472,-2.06742 l 1.33707,2.4454 v 0"
         id="path4596" />
      <path
         style="fill:none;stroke:#000000;stroke-width:0.26458332px;stroke-linecap:butt;stroke-linejoin:miter;stroke-opacity:1"
         d="m 233.3186,168.33564 v 0 l 0.0693,-2.40241 2.48205,0.89051 v 0"
         id="path4598" />
      <path
         style="fill:none;stroke:#000000;stroke-width:0.26458332px;stroke-linecap:butt;stroke-linejoin:miter;stroke-opacity:1"
         d="m 154.1326,204.71585 -16.63095,17.00893 v 0"
         id="path4600" />
      <path
         style="fill:none;stroke:#000000;stroke-width:0.26458332px;stroke-linecap:butt;stroke-linejoin:miter;stroke-opacity:1"
         d="m 179.64599,202.25901 11.33929,15.11905 v 0"
         id="path4602" />
      <path
         style="fill:none;stroke:#000000;stroke-width:0.26458332px;stroke-linecap:butt;stroke-linejoin:miter;stroke-opacity:1"
         d="m 137.50165,221.72478 3.77976,-1.32291 -2.72889,-2.08602 v 0 z"
         id="path4604" />
      <path
         style="fill:none;stroke:#000000;stroke-width:0.26458332px;stroke-linecap:butt;stroke-linejoin:miter;stroke-opacity:1"
         d="m 190.98528,217.37806 0.75388,-3.47215 -4.40995,1.87088 z"
         id="path4606" />
      <path
         style="opacity:0.99299999;fill:#000000;fill-opacity:0.38693465;stroke:#000000;stroke-width:0.13384521;stroke-miterlimit:4;stroke-dasharray:none;stroke-dashoffset:0;stroke-opacity:0"
         d="m 190.2707,216.08452 c -0.33074,-0.44742 -0.6214,-0.8631 -0.64589,-0.92372 -0.0388,-0.0961 0.56615,-0.40426 1.54359,-0.78633 0.33532,-0.13106 0.33845,-0.19822 -0.0731,1.5664 l -0.22323,0.95714 z"
         id="path4608" />
      <path
         style="opacity:0.99299999;fill:#000000;fill-opacity:0.96482412;stroke:#000000;stroke-width:0.13384521;stroke-miterlimit:4;stroke-dasharray:none;stroke-dashoffset:0;stroke-opacity:0"
         d="m 188.94485,216.281 -1.1254,-0.48655 0.65388,-0.28552 0.65389,-0.28551 0.21313,0.28105 c 0.78239,1.03172 0.9488,1.28216 0.84599,1.2732 -0.0639,-0.006 -0.62252,-0.22907 -1.24149,-0.49667 z"
         id="path4610" />
      <path
         style="opacity:0.99299999;fill:#000000;fill-opacity:0.96482412;stroke:#000000;stroke-width:0.13384521;stroke-miterlimit:4;stroke-dasharray:none;stroke-dashoffset:0;stroke-opacity:0"
         d="m 190.52843,216.34927 c -0.1155,-0.16306 -0.35233,-0.49193 -0.52629,-0.73082 l -0.31629,-0.43435 0.2782,-0.25919 c 0.15301,-0.14255 0.30908,-0.2283 0.34683,-0.19056 0.0377,0.0377 0.2626,-0.0317 0.49968,-0.15428 0.34847,-0.18021 0.45179,-0.18936 0.53931,-0.0478 0.0595,0.0963 0.0492,0.24629 -0.0229,0.33322 -0.0721,0.0869 -0.15195,0.35955 -0.17735,0.60583 -0.0254,0.24629 -0.0885,0.55015 -0.1403,0.67525 -0.0518,0.12511 -0.0552,0.29048 -0.008,0.3675 0.17166,0.27774 -0.26837,0.12449 -0.47331,-0.16485 z"
         id="path4612" />
      <path
         style="opacity:0.99299999;fill:#000000;fill-opacity:0.96482412;stroke:#000000;stroke-width:0.13384521;stroke-miterlimit:4;stroke-dasharray:none;stroke-dashoffset:0;stroke-opacity:0"
         d="m 138.05425,220.65616 c 0.0386,-0.11412 0.1753,-0.58181 0.30366,-1.0393 0.12837,-0.45749 0.27048,-0.85472 0.3158,-0.88273 0.0453,-0.028 0.2567,0.099 0.46972,0.28223 l 0.38731,0.33315 -0.77337,0.75707 c -0.42536,0.41639 -0.74176,0.6637 -0.70312,0.54958 z"
         id="path4614" />
      <path
         style="opacity:0.99299999;fill:#000000;fill-opacity:0.96482412;stroke:#000000;stroke-width:0.13384521;stroke-miterlimit:4;stroke-dasharray:none;stroke-dashoffset:0;stroke-opacity:0"
         d="m 138.80001,220.6966 c 0.14529,-0.20212 0.4453,-0.53956 0.6667,-0.74985 l 0.40253,-0.38237 0.48194,0.36759 c 0.26506,0.20218 0.45999,0.38954 0.43317,0.41636 -0.0712,0.0712 -1.98854,0.71577 -2.12917,0.71577 -0.0656,0 -5.3e-4,-0.16537 0.14483,-0.3675 z"
         id="path4616" />
      <path
         style="opacity:0.99299999;fill:#000000;fill-opacity:0.96482412;stroke:#000000;stroke-width:0.13384521;stroke-miterlimit:4;stroke-dasharray:none;stroke-dashoffset:0;stroke-opacity:0"
         d="m 88.679314,189.82698 0.0059,-0.63477 0.266684,0.50528 c 0.275386,0.52176 0.248121,0.76425 -0.08593,0.76425 -0.141468,0 -0.190998,-0.16844 -0.186659,-0.63476 z"
         id="path4618" />
      <path
         style="opacity:0.99299999;fill:#000000;fill-opacity:0.96482412;stroke:#000000;stroke-width:0.13384521;stroke-miterlimit:4;stroke-dasharray:none;stroke-dashoffset:0;stroke-opacity:0"
         d="m 89.467198,189.8393 c -0.178745,-0.47014 -0.09824,-0.51015 0.259736,-0.1291 0.256207,0.27272 0.268007,0.32773 0.08534,0.39782 -0.14632,0.0562 -0.253204,-0.0271 -0.345075,-0.26872 z"
         id="path4620" />
      <path
         style="opacity:0.99299999;fill:#000000;fill-opacity:0.96482412;stroke:#000000;stroke-width:0.13384521;stroke-miterlimit:4;stroke-dasharray:none;stroke-dashoffset:0;stroke-opacity:0"
         d="m 100.40177,188.86907 c -0.11785,-0.30002 -0.1905,-0.54549 -0.16144,-0.54549 0.0291,0 0.22957,0.10748 0.44558,0.23885 0.38286,0.23283 0.38693,0.24655 0.16144,0.54549 l -0.23131,0.30664 z"
         id="path4622" />
      <path
         style="opacity:0.99299999;fill:#000000;fill-opacity:0.96482412;stroke:#000000;stroke-width:0.13384521;stroke-miterlimit:4;stroke-dasharray:none;stroke-dashoffset:0;stroke-opacity:0"
         d="m 101.10348,189.0679 c 0.006,-0.33136 0.23492,-0.4763 0.5155,-0.32613 0.33334,0.17839 0.38297,0.34283 0.0669,0.22153 -0.11956,-0.0459 -0.29997,-0.0149 -0.4009,0.0689 -0.10093,0.0838 -0.18259,0.0998 -0.18147,0.0357 z"
         id="path4628" />
      <path
         style="opacity:0.99299999;fill:#000000;fill-opacity:0.96482412;stroke:#000000;stroke-width:0.13384521;stroke-miterlimit:4;stroke-dasharray:none;stroke-dashoffset:0;stroke-opacity:0"
         d="m 92.483927,167.26907 c 0.482311,-0.76032 0.901768,-1.10248 1.351534,-1.10248 0.731182,0 0.639912,0.23665 -0.33437,0.8669 -1.088025,0.70384 -1.353156,0.76525 -1.017164,0.23558 z"
         id="path4632" />
      <path
         style="opacity:0.99299999;fill:#000000;fill-opacity:0.96482412;stroke:#000000;stroke-width:0.13384521;stroke-miterlimit:4;stroke-dasharray:none;stroke-dashoffset:0;stroke-opacity:0"
         d="m 91.405461,166.6009 c 0.04959,-0.42262 0.1207,-0.87364 0.158038,-1.00226 0.0807,-0.27801 0.437907,-0.30363 0.776928,-0.0557 0.231386,0.16919 0.220938,0.21938 -0.208319,1.00068 -0.592199,1.07787 -0.848763,1.09811 -0.726647,0.0573 z"
         id="path4634" />
      <path
         style="opacity:0.99299999;fill:#000000;fill-opacity:0.96482412;stroke:#000000;stroke-width:0.13384521;stroke-miterlimit:4;stroke-dasharray:none;stroke-dashoffset:0;stroke-opacity:0"
         d="m 113.44702,183.52165 c 0.65289,-0.21584 1.21207,-0.36745 1.24262,-0.3369 0.0306,0.0305 0.016,0.21298 -0.0323,0.4054 -0.0866,0.34497 -0.10396,0.34968 -1.24262,0.3369 l -1.15482,-0.013 z"
         id="path4636" />
      <path
         style="opacity:0.99299999;fill:#000000;fill-opacity:0.96482412;stroke:#000000;stroke-width:0.13384521;stroke-miterlimit:4;stroke-dasharray:none;stroke-dashoffset:0;stroke-opacity:0"
         d="m 112.97057,185.2318 -1.16026,-0.82407 1.27771,-0.0384 c 0.70274,-0.0212 1.30021,-0.016 1.32771,0.0115 0.0275,0.0275 -0.0254,0.41563 -0.11746,0.86252 l -0.16745,0.81252 z"
         id="path4638" />
      <path
         style="opacity:0.99299999;fill:#000000;fill-opacity:0.96482412;stroke:#000000;stroke-width:0.13384521;stroke-miterlimit:4;stroke-dasharray:none;stroke-dashoffset:0;stroke-opacity:0"
         d="m 101.63597,188.36573 c 0,-0.0735 0.0601,-0.1708 0.13364,-0.21623 0.0735,-0.0454 0.13364,-0.0225 0.13364,0.0511 0,0.0735 -0.0601,0.1708 -0.13364,0.21622 -0.0735,0.0454 -0.13364,0.0225 -0.13364,-0.051 z"
         id="path4640" />
      <path
         style="opacity:0.99299999;fill:#000000;fill-opacity:0.96482412;stroke:#000000;stroke-width:0.02366071;stroke-miterlimit:4;stroke-dasharray:none;stroke-dashoffset:0;stroke-opacity:0"
         d="m 100.86309,188.26312 -0.50131,-0.27368 0.50131,-0.0177 c 0.27572,-0.01 0.60917,-0.0151 0.74098,-0.0118 l 0.23967,0.006 -0.21004,0.25891 c -0.11553,0.14241 -0.22338,0.27088 -0.23967,0.2855 -0.0226,0.0202 -0.14915,-0.0387 -0.53094,-0.2471 z"
         id="path4642" />
      <path
         style="opacity:0.99299999;fill:#000000;fill-opacity:0.96482412;stroke:#000000;stroke-width:0.02366071;stroke-miterlimit:4;stroke-dasharray:none;stroke-dashoffset:0;stroke-opacity:0"
         d="m 100.56662,189.41586 c -0.14668,-0.35231 -0.46879,-1.20716 -0.45868,-1.21726 0.0109,-0.011 0.92414,0.47045 1.03871,0.54758 0.0381,0.0257 0.0161,0.0606 -0.2325,0.36814 -0.15104,0.18687 -0.28354,0.34914 -0.29445,0.3606 -0.0111,0.0116 -0.0345,-0.0145 -0.0531,-0.0591 z m 0.14814,-0.10882 c 0.24689,-0.32779 0.28576,-0.39459 0.27866,-0.47882 -0.006,-0.0735 -0.0256,-0.0953 -0.17236,-0.19375 -0.19407,-0.13017 -0.5767,-0.33607 -0.59343,-0.31933 -0.0224,0.0224 0.0619,0.29251 0.21467,0.68745 0.0849,0.21943 0.15434,0.4028 0.15434,0.40751 0,0.0322 0.0474,-0.009 0.11812,-0.10306 z"
         id="path4644" />
      <path
         style="opacity:0.99299999;fill:#000000;fill-opacity:0.96482412;stroke:#000000;stroke-width:0.02366071;stroke-miterlimit:4;stroke-dasharray:none;stroke-dashoffset:0;stroke-opacity:0"
         d="m 112.986,185.22838 -1.13511,-0.8061 0.41459,-0.017 c 0.57697,-0.0236 2.11954,-0.0337 2.13939,-0.0141 0.0262,0.026 -0.0288,0.3877 -0.15746,1.03505 -0.0658,0.33132 -0.12119,0.6037 -0.123,0.60529 -0.002,0.002 -0.51411,-0.35985 -1.13841,-0.8032 z"
         id="path4646" />
      <path
         style="opacity:0.99299999;fill:#000000;fill-opacity:0.96482412;stroke:#000000;stroke-width:0.02366071;stroke-miterlimit:4;stroke-dasharray:none;stroke-dashoffset:0;stroke-opacity:0"
         d="m 112.83391,185.20558 -1.31081,-0.92504 0.22413,-0.006 c 0.32125,-0.009 2.75866,0.0522 2.77566,0.0692 0.0152,0.0152 -0.3405,1.7451 -0.36417,1.77135 -0.008,0.009 -0.60386,-0.40074 -1.32481,-0.9095 z m 1.43718,0.22071 c 0.14137,-0.70895 0.1832,-1.011 0.14524,-1.04896 -0.0487,-0.0487 -2.60988,-0.0127 -2.5935,0.0364 0.0126,0.0378 2.29677,1.64959 2.31274,1.63195 0.008,-0.009 0.0695,-0.28808 0.13552,-0.61939 z"
         id="path4648" />
      <path
         style="opacity:0.99299999;fill:#000000;fill-opacity:0.96482412;stroke:#000000;stroke-width:0.00418266;stroke-miterlimit:4;stroke-dasharray:none;stroke-dashoffset:0;stroke-opacity:0"
         d="m 114.29265,184.04815 c -0.0781,-0.002 -0.39381,-0.009 -0.70158,-0.0161 -0.85277,-0.0194 -1.77823,-0.0417 -1.77946,-0.0429 -0.001,-0.001 3.01873,-0.99586 3.02039,-0.99513 2.6e-4,1.5e-4 -0.0494,0.23846 -0.11067,0.52957 l -0.1113,0.52929 -0.0877,-5.3e-4 c -0.0482,-2.7e-4 -0.15159,-0.002 -0.22968,-0.004 z m -0.0585,-0.12438 c 0.26075,-0.023 0.33938,-0.0655 0.39034,-0.21121 0.0269,-0.077 0.0621,-0.23369 0.0756,-0.33623 0.006,-0.0455 0.008,-0.145 0.003,-0.16795 -0.005,-0.0227 -0.0125,-0.0283 -0.0385,-0.0283 -0.0906,0 -0.50884,0.11251 -0.99586,0.26791 -0.12159,0.0388 -0.92625,0.30401 -1.29888,0.4281 l -0.11066,0.0368 0.0961,0.003 c 0.36185,0.0121 1.76416,0.0178 1.87924,0.008 z"
         id="path4650" />
      <path
         style="opacity:0.99299999;fill:#000000;fill-opacity:0.96482412;stroke:#000000;stroke-width:0.00418266;stroke-miterlimit:4;stroke-dasharray:none;stroke-dashoffset:0;stroke-opacity:0"
         d="m 112.81329,185.20233 c -0.74206,-0.52311 -1.3489,-0.95132 -1.34853,-0.95158 2.6e-4,-2.5e-4 0.0975,0.002 0.21575,0.005 0.11829,0.003 0.34004,0.008 0.49277,0.012 0.15275,0.004 0.39329,0.009 0.53454,0.0127 0.14126,0.003 0.3818,0.009 0.53454,0.0125 0.15274,0.003 0.35946,0.008 0.45937,0.0105 0.0999,0.002 0.26059,0.006 0.35706,0.008 0.0965,0.002 0.24398,0.005 0.32782,0.007 0.0838,0.002 0.15539,0.004 0.15902,0.005 0.006,0.002 -0.0104,0.0831 -0.11692,0.58905 -0.0679,0.32258 -0.12404,0.58376 -0.12468,0.58041 -5.3e-4,-0.003 0.0121,-0.07 0.0284,-0.14803 0.0163,-0.0781 0.0557,-0.27252 0.0876,-0.43215 0.0796,-0.39804 0.10967,-0.56399 0.1034,-0.57026 -0.0159,-0.0159 -1.97524,-0.068 -2.61123,-0.0695 -0.26072,-5.3e-4 -0.39408,0.003 -0.3856,0.0114 0.007,0.006 1.30654,0.92334 1.6426,1.15875 0.39083,0.27378 0.65567,0.45653 0.83417,0.57564 0.11873,0.0792 0.14894,0.0978 0.15539,0.0953 0.008,-0.003 0.0419,-0.14792 0.10293,-0.43448 0.0122,-0.0572 0.0229,-0.10182 0.0237,-0.0992 0.002,0.006 -0.11716,0.57274 -0.12047,0.57274 -10e-4,0 -0.60966,-0.42799 -1.35172,-0.9511 z"
         id="path4652" />
      <path
         style="opacity:0.99299999;fill:#000000;fill-opacity:0.96482412;stroke:#000000;stroke-width:0.00418266;stroke-miterlimit:4;stroke-dasharray:none;stroke-dashoffset:0;stroke-opacity:0"
         d="m 114.13319,186.09912 c -0.0493,-0.0281 -0.35659,-0.23743 -0.72587,-0.49434 -0.3858,-0.26839 -1.87393,-1.3185 -1.87168,-1.32075 0.006,-0.006 0.33079,-0.009 0.57918,-0.006 0.9865,0.0146 2.39044,0.0546 2.40426,0.0684 0.006,0.006 -0.0214,0.15628 -0.0933,0.51831 -0.12367,0.62213 -0.2563,1.23673 -0.26851,1.24428 -0.002,0.001 -0.0124,-0.004 -0.0241,-0.0103 z m 0.0184,-0.10442 c 0.0278,-0.10743 0.11335,-0.52047 0.17433,-0.84144 0.0734,-0.38653 0.10326,-0.58638 0.1041,-0.69741 5.2e-4,-0.0553 -0.004,-0.0783 -0.0166,-0.0831 -0.0693,-0.0266 -1.31751,-0.0255 -2.08561,0.002 -0.26632,0.009 -0.48484,0.0235 -0.49237,0.0316 -0.001,0.002 0.0379,0.002 0.0873,-3e-5 0.3499,-0.0106 1.2242,-0.0366 1.37184,-0.0407 0.24986,-0.007 0.88303,-0.007 0.98556,-2.5e-4 0.0993,0.007 0.12778,0.011 0.13512,0.0206 0.004,0.006 0.005,0.0216 0.003,0.0742 -0.005,0.13864 -0.0461,0.40374 -0.11923,0.76631 -0.0501,0.24824 -0.1676,0.81589 -0.16929,0.81758 -7.9e-4,7.9e-4 -0.006,-5.3e-4 -0.0114,-0.003 -0.009,-0.005 -0.009,-0.005 -0.002,0.002 0.016,0.0128 0.0203,0.007 0.0345,-0.0479 z m 0.0513,-0.35905 c 0.15326,-0.76617 0.20795,-1.08948 0.20382,-1.20486 l -0.001,-0.0376 -0.0271,-0.004 c -0.0162,-0.002 -0.2555,-0.004 -0.593,-0.004 -0.53546,1.5e-4 -0.92423,0.005 -1.27788,0.0144 -0.17407,0.005 -0.64321,0.0234 -0.64512,0.0255 -0.002,0.002 1.7728,1.26143 2.16939,1.53924 0.0836,0.0585 0.09,0.0623 0.0931,0.0539 0.002,-0.005 0.037,-0.17719 0.0781,-0.38279 z m -0.23407,0.30325 c -0.003,-0.003 -0.38948,-0.27787 -0.85804,-0.61048 -0.46855,-0.33261 -0.94494,-0.67081 -1.05864,-0.75154 -0.11369,-0.0807 -0.21235,-0.15015 -0.21924,-0.15425 -0.0123,-0.007 -0.0124,-0.007 -0.004,2.7e-4 0.0733,0.0645 0.6579,0.48507 1.36715,0.98351 0.33156,0.23301 0.77121,0.53757 0.77661,0.53797 10e-4,9e-5 -8e-4,-0.002 -0.004,-0.006 z"
         id="path4654" />
      <path
         style="opacity:0.99299999;fill:#000000;fill-opacity:0.96482412;stroke:#000000;stroke-width:0.00418266;stroke-miterlimit:4;stroke-dasharray:none;stroke-dashoffset:0;stroke-opacity:0"
         d="m 114.10208,186.07899 c -0.17674,-0.11145 -0.75415,-0.51313 -1.86198,-1.29531 -0.35256,-0.24893 -0.6556,-0.46288 -0.67342,-0.47545 -0.0178,-0.0126 -0.0317,-0.0235 -0.0309,-0.0243 7.9e-4,-7.9e-4 0.069,-0.003 0.15141,-0.006 0.38352,-0.0105 2.8116,0.0482 2.83188,0.0685 0.007,0.007 -0.0682,0.40507 -0.1788,0.94011 -0.10449,0.50549 -0.17391,0.81685 -0.18344,0.82274 -0.002,10e-4 -0.0263,-0.0127 -0.0547,-0.0306 z m 0.0554,-0.10799 c 0.0496,-0.20386 0.18027,-0.86061 0.22696,-1.14105 0.0336,-0.20166 0.0447,-0.29268 0.0455,-0.37201 5.3e-4,-0.0575 -0.004,-0.0803 -0.0165,-0.0852 -0.069,-0.0265 -1.32156,-0.0255 -2.08353,0.002 -0.25269,0.009 -0.45065,0.021 -0.48234,0.0293 -0.0185,0.005 0.0281,0.004 0.7162,-0.0168 0.87583,-0.0262 0.89175,-0.0265 1.2758,-0.0267 0.42726,-2.6e-4 0.5602,0.006 0.57525,0.0255 0.0169,0.0223 -0.005,0.23407 -0.0534,0.51181 -0.0275,0.15824 -0.0474,0.25892 -0.14445,0.72962 -0.0447,0.21705 -0.0824,0.40027 -0.0838,0.40717 -0.002,0.01 -0.001,0.0115 0.003,0.008 0.003,-0.003 0.0125,-0.0347 0.0214,-0.071 z m -0.18425,-0.0281 c 0,-0.001 -0.0324,-0.0247 -0.072,-0.0529 -0.15142,-0.10763 -1.95826,-1.39077 -2.01257,-1.42924 -0.0959,-0.0679 -0.0736,-0.0461 0.0404,0.0395 0.30111,0.22616 1.44825,1.0381 1.98365,1.40399 0.0607,0.0414 0.0606,0.0414 0.0606,0.0386 z"
         id="path4656" />
      <path
         style="opacity:0.99299999;fill:#000000;fill-opacity:0.96482412;stroke:#000000;stroke-width:0.00103516;stroke-miterlimit:4;stroke-dasharray:none;stroke-dashoffset:0;stroke-opacity:0"
         d="m 112.58118,184.38618 c 0,-0.001 0.0119,-0.002 0.0889,-0.004 0.0418,-0.001 0.11364,-0.003 0.15968,-0.005 0.294,-0.009 0.3682,-0.011 0.46974,-0.0134 0.23331,-0.005 0.48698,-0.008 0.65216,-0.007 0.10712,5.2e-4 0.12712,0.001 0.12712,0.003 0,0.001 -0.0362,0.001 -0.16924,7.9e-4 -0.2212,-5.3e-4 -0.45504,0.001 -0.59867,0.005 -0.0513,0.001 -0.33327,0.009 -0.48472,0.0139 -0.23999,0.007 -0.24495,0.007 -0.24495,0.007 z"
         id="path4658" />
      <path
         style="opacity:0.99299999;fill:#000000;fill-opacity:0.96482412;stroke:#000000;stroke-width:0.00103516;stroke-miterlimit:4;stroke-dasharray:none;stroke-dashoffset:0;stroke-opacity:0"
         d="m 112.58118,184.37711 c 0,-0.007 1.8e-4,-0.007 0.002,-0.008 0.001,-2.6e-4 0.0372,-0.001 0.0798,-0.002 0.0426,-7.9e-4 0.0987,-0.002 0.12454,-0.003 0.1144,-0.002 0.30322,-0.005 0.4594,-0.007 0.15248,-0.002 0.51087,-0.003 0.55449,-0.002 0.0395,8e-4 0.0354,8e-4 -0.0708,0.002 -0.20525,0.001 -0.44358,0.006 -0.71107,0.0143 -0.0182,5.3e-4 -0.0568,0.002 -0.0858,0.003 -0.029,7.9e-4 -0.0674,0.002 -0.0853,0.003 -0.0179,5.2e-4 -0.0565,0.002 -0.0858,0.003 -0.11646,0.003 -0.15612,0.005 -0.16873,0.005 l -0.0132,5.3e-4 z"
         id="path4660" />
      <path
         style="opacity:0.99299999;fill:#000000;fill-opacity:0.96482412;stroke:#000000;stroke-width:0.01171145;stroke-miterlimit:4;stroke-dasharray:none;stroke-dashoffset:0;stroke-opacity:0"
         d="m 89.557159,190.17463 c -0.01797,-0.0397 -0.152075,-0.32934 -0.298008,-0.64355 -0.145937,-0.3142 -0.263708,-0.57279 -0.261718,-0.57463 0.0021,-0.002 0.269721,0.23682 0.59496,0.53036 l 0.591341,0.53371 -0.03592,0.0134 c -0.01976,0.007 -0.153384,0.0583 -0.29695,0.11319 l -0.26103,0.0998 z m 0.256233,-0.0627 c 0.07335,-0.0237 0.12895,-0.0721 0.12895,-0.11234 0,-0.0455 -0.07967,-0.15368 -0.227349,-0.30866 -0.192791,-0.20232 -0.288882,-0.26922 -0.329028,-0.22907 -0.02704,0.027 -0.01529,0.11198 0.03723,0.26943 0.05544,0.16618 0.124555,0.29746 0.182906,0.3474 0.06583,0.0563 0.112546,0.0638 0.207291,0.0332 z"
         id="path4662" />
      <path
         style="opacity:0.99299999;fill:#000000;fill-opacity:0.96482412;stroke:#000000;stroke-width:0.01171145;stroke-miterlimit:4;stroke-dasharray:none;stroke-dashoffset:0;stroke-opacity:0"
         d="m 88.609334,190.58666 c 0,-0.0318 0.06583,-1.46168 0.07277,-1.58047 0.0031,-0.0533 0.01593,-0.0281 0.321942,0.63142 0.175286,0.37781 0.318672,0.69281 0.318635,0.69999 -3.7e-5,0.007 -0.04348,0.029 -0.09654,0.0486 -0.05306,0.0195 -0.213542,0.0802 -0.356637,0.13488 l -0.26017,0.0994 z m 0.412014,-0.14766 c 0.08906,-0.0356 0.134586,-0.12984 0.119984,-0.24828 -0.01968,-0.1597 -0.06134,-0.2549 -0.3853,-0.88048 -0.03245,-0.0627 -0.06329,-0.11396 -0.06853,-0.114 -0.0052,-4e-5 -0.0076,0.23276 -0.0052,0.51734 0.0038,0.4453 0.0072,0.5272 0.02447,0.58758 0.02445,0.0854 0.04951,0.12206 0.102137,0.14961 0.04571,0.0239 0.135662,0.0189 0.212402,-0.0118 z"
         id="path4664" />
      <path
         style="opacity:0.99299999;fill:#000000;fill-opacity:0.96482412;stroke:#000000;stroke-width:0.00828125;stroke-miterlimit:4;stroke-dasharray:none;stroke-dashoffset:0;stroke-opacity:0"
         d="m 92.211104,167.77111 c -0.02109,-0.0549 0.154152,-0.38773 0.387641,-0.73618 0.219903,-0.32817 0.370819,-0.52818 0.495089,-0.65612 0.127775,-0.13156 0.216027,-0.1897 0.347974,-0.22926 0.06723,-0.0202 0.0905,-0.0227 0.241038,-0.0262 0.231098,-0.005 0.405557,0.013 0.569357,0.0601 0.15257,0.0438 0.23553,0.0995 0.23553,0.158 0,0.0248 -0.008,0.0378 -0.0517,0.0834 -0.30648,0.32013 -1.915759,1.31872 -2.184568,1.35556 -0.02814,0.004 -0.03607,0.002 -0.04039,-0.009 z m 0.310348,-0.17467 c 0.165365,-0.0545 0.570077,-0.28907 1.072034,-0.62133 0.382011,-0.25286 0.624377,-0.45108 0.695227,-0.56857 0.051,-0.0847 0.0375,-0.14581 -0.0412,-0.1862 -0.10541,-0.0541 -0.422451,-0.0746 -0.59081,-0.0382 -0.36254,0.0783 -0.710044,0.38406 -1.093783,0.96234 -0.162491,0.24488 -0.216603,0.34936 -0.216603,0.41824 0,0.0676 0.04581,0.0764 0.175185,0.0337 z"
         id="path4666" />
      <path
         style="opacity:0.99299999;fill:#000000;fill-opacity:0.96482412;stroke:#000000;stroke-width:0.00828125;stroke-miterlimit:4;stroke-dasharray:none;stroke-dashoffset:0;stroke-opacity:0"
         d="m 91.79248,168.13809 c 0.03631,-0.12662 0.536012,-0.89582 0.889215,-1.3688 0.318661,-0.42673 0.636198,-0.77739 0.76177,-0.84125 0.03886,-0.0198 0.08007,-0.0167 0.202625,0.0149 0.21195,0.0547 0.381253,0.11775 0.839453,0.31241 0.24493,0.10406 0.31382,0.13649 0.30592,0.14402 -0.0109,0.0103 -1.401825,0.85529 -1.763066,1.07099 -0.674487,0.40273 -1.192586,0.69316 -1.236554,0.69316 -0.0037,0 -0.0034,-0.0115 5.29e-4,-0.0255 z m 0.517134,-0.36721 c 0.37619,-0.12628 1.760009,-0.99058 2.097509,-1.31005 0.0735,-0.0696 0.0942,-0.1024 0.0857,-0.13617 -0.0138,-0.055 -0.12778,-0.11979 -0.27605,-0.15683 -0.15546,-0.0388 -0.260912,-0.0497 -0.481434,-0.0498 -0.226978,-6e-5 -0.273764,0.008 -0.394758,0.065 -0.08363,0.0396 -0.126781,0.071 -0.216056,0.15706 -0.295823,0.28524 -0.918808,1.24686 -0.918808,1.41825 0,0.0405 0.01527,0.0423 0.103907,0.0126 z"
         id="path4668" />
      <path
         style="opacity:0.99299999;fill:#000000;fill-opacity:0.96482412;stroke:#000000;stroke-width:0.00828125;stroke-miterlimit:4;stroke-dasharray:none;stroke-dashoffset:0;stroke-opacity:0"
         d="m 91.206627,168.67686 c 0.0067,-0.0186 2.087134,-2.96032 2.093648,-2.9605 0.0096,-2.7e-4 1.727288,0.65351 1.734978,0.66038 0.003,0.003 -0.85746,0.52335 -1.91272,1.15651 -1.055264,0.63316 -1.917422,1.14779 -1.915906,1.14361 z m 0.755168,-0.58739 c 0.168746,-0.087 0.501023,-0.27614 0.898345,-0.51146 0.292682,-0.17334 1.940623,-1.17184 1.951933,-1.18268 0.007,-0.007 -0.59121,-0.26244 -0.78808,-0.33667 -0.212176,-0.08 -0.41401,-0.13984 -0.504151,-0.14946 -0.03496,-0.004 -0.0528,-0.001 -0.07441,0.01 -0.151263,0.0774 -0.537292,0.51787 -0.902089,1.02928 -0.398931,0.55926 -0.758915,1.13091 -0.75923,1.20565 -1.11e-4,0.0261 0.0082,0.023 0.177686,-0.0643 z"
         id="path4670" />
      <path
         style="opacity:0.99299999;fill:#000000;fill-opacity:0.96482412;stroke:#000000;stroke-width:0.00828125;stroke-miterlimit:4;stroke-dasharray:none;stroke-dashoffset:0;stroke-opacity:0"
         d="m 91.197925,167.90423 c -0.02689,-0.0324 -0.0306,-0.17401 -0.0089,-0.34013 0.0241,-0.18467 0.07838,-0.5151 0.08402,-0.51162 0.0037,0.002 0.0066,0.0126 0.0066,0.023 0,0.0373 0.04356,0.19194 0.07006,0.24878 0.05062,0.10855 0.117142,0.163 0.20062,0.1642 0.02394,2.7e-4 0.04351,0.002 0.04351,0.004 0,0.006 -0.14097,0.18454 -0.220313,0.27942 -0.113564,0.13581 -0.149998,0.16328 -0.17562,0.13241 z"
         id="path4672" />
      <path
         style="opacity:0.99299999;fill:#000000;fill-opacity:0.96482412;stroke:#000000;stroke-width:0.00828125;stroke-miterlimit:4;stroke-dasharray:none;stroke-dashoffset:0;stroke-opacity:0"
         d="m 91.471713,167.46427 c -0.0665,-0.0331 -0.114676,-0.10698 -0.153371,-0.23504 -0.04988,-0.16508 -0.05056,-0.19488 -0.01027,-0.45061 l 0.03126,-0.19844 0.03718,-0.0372 0.03718,-0.0372 -0.0049,0.0372 c -0.04304,0.32658 -0.04631,0.60103 -0.0087,0.72717 0.01635,0.0547 0.05739,0.0996 0.09108,0.0996 0.05967,0 0.140194,-0.063 0.241371,-0.18897 0.06087,-0.0758 0.179303,-0.24875 0.228923,-0.33436 0.04639,-0.0801 0.02735,-0.03 -0.03611,0.0949 -0.03588,0.0706 -0.07374,0.15483 -0.08414,0.1871 -0.01529,0.0475 -0.03825,0.0851 -0.120753,0.19753 -0.05602,0.0764 -0.108143,0.14351 -0.115827,0.14919 -0.02365,0.0175 -0.08619,0.0124 -0.132953,-0.011 z"
         id="path4674" />
      <path
         style="opacity:0.99299999;fill:#000000;fill-opacity:0.96482412;stroke:#000000;stroke-width:0.00828125;stroke-miterlimit:4;stroke-dasharray:none;stroke-dashoffset:0;stroke-opacity:0"
         d="m 91.626931,167.46517 c 0,-0.002 0.04186,-0.0606 0.09302,-0.12991 0.09099,-0.12331 0.09308,-0.12543 0.09568,-0.0974 0.0016,0.0157 0.0061,0.0322 0.01035,0.0365 0.01439,0.0147 0.0077,0.0386 -0.02334,0.0833 -0.02492,0.036 -0.04339,0.0512 -0.09428,0.078 -0.05856,0.0309 -0.08142,0.0391 -0.08142,0.0295 z"
         id="path4676" />
      <path
         style="opacity:0.99299999;fill:#000000;fill-opacity:0.96482412;stroke:#000000;stroke-width:0.00828125;stroke-miterlimit:4;stroke-dasharray:none;stroke-dashoffset:0;stroke-opacity:0"
         d="m 90.940951,168.56455 c -1.35e-4,-0.005 0.102065,-0.6575 0.227113,-1.45102 0.125047,-0.79352 0.227356,-1.44557 0.227356,-1.44901 0,-0.003 0.01463,-0.006 0.03254,-0.006 h 0.03254 l -0.0043,0.0765 c -0.0024,0.0421 -0.03014,0.24577 -0.06174,0.45268 -0.04899,0.32078 -0.06096,0.38413 -0.08124,0.42995 -0.03527,0.0797 -0.04379,0.13034 -0.0471,0.27996 -0.0024,0.10626 -0.01003,0.17981 -0.03578,0.34313 -0.04862,0.30821 -0.05887,0.39542 -0.05997,0.51022 -7.94e-4,0.087 0.0016,0.10919 0.01487,0.13642 0.02286,0.0468 0.04328,0.0465 0.09458,-0.002 0.04473,-0.0418 0.184013,-0.20911 0.272688,-0.32749 0.04025,-0.0537 0.06101,-0.0742 0.08268,-0.0816 0.01593,-0.005 0.04698,-0.0189 0.06903,-0.0299 0.02204,-0.0111 0.04121,-0.0189 0.04257,-0.0175 0.0021,0.002 -0.729496,1.04214 -0.787273,1.11918 -0.01008,0.0134 -0.01844,0.0208 -0.01857,0.0162 z"
         id="path4678" />
      <path
         style="opacity:0.99299999;fill:#000000;fill-opacity:0.96482412;stroke:#000000;stroke-width:0.00828125;stroke-miterlimit:4;stroke-dasharray:none;stroke-dashoffset:0;stroke-opacity:0"
         d="m 91.830184,167.26671 c -0.0086,-0.0181 -0.01154,-0.037 -0.008,-0.0516 0.003,-0.0127 0.05844,-0.0975 0.12314,-0.18842 0.416065,-0.58489 0.776309,-1.13352 0.852681,-1.29856 l 0.032,-0.0692 0.08576,-2.6e-4 c 0.06742,-2.6e-4 0.08404,0.002 0.07772,0.01 -0.0044,0.006 -0.258511,0.36566 -0.564637,0.79995 -0.306128,0.43429 -0.563001,0.79796 -0.57083,0.80817 l -0.01423,0.0185 z"
         id="path4680" />
      <path
         style="opacity:0.99299999;fill:#000000;fill-opacity:0.96482412;stroke:#000000;stroke-width:0.00828125;stroke-miterlimit:4;stroke-dasharray:none;stroke-dashoffset:0;stroke-opacity:0"
         d="m 92.902249,165.65182 c -0.05886,-0.004 -0.07525,-0.009 -0.148828,-0.0474 -0.08426,-0.0435 -0.375653,-0.17383 -0.552882,-0.24729 -0.07885,-0.0327 -0.09956,-0.0447 -0.105423,-0.0614 -0.004,-0.0114 -0.01138,-0.0278 -0.01638,-0.0364 -0.0078,-0.0135 -0.007,-0.0149 0.0062,-0.01 0.02352,0.009 0.923321,0.35176 0.935632,0.35618 0.01775,0.006 -0.01455,0.054 -0.03536,0.0521 -0.0093,-7.9e-4 -0.04658,-0.004 -0.08297,-0.006 z"
         id="path4682" />
      <path
         style="opacity:0.99299999;fill:#000000;fill-opacity:0.96482412;stroke:#000000;stroke-width:0.00828125;stroke-miterlimit:4;stroke-dasharray:none;stroke-dashoffset:0;stroke-opacity:0"
         d="m 91.83978,167.14857 c 0,-0.0153 0.06038,-0.14838 0.110995,-0.24464 0.07155,-0.13607 0.132776,-0.2358 0.293749,-0.47851 0.23577,-0.35549 0.328403,-0.51664 0.372012,-0.64719 0.01389,-0.0416 0.02527,-0.0913 0.02527,-0.11037 0,-0.10039 -0.08359,-0.14886 -0.256689,-0.14886 -0.05535,0 -0.06919,-0.003 -0.108034,-0.025 -0.0245,-0.0138 -0.06802,-0.0366 -0.09669,-0.0506 -0.05706,-0.028 -0.07425,-0.0476 -0.08164,-0.0932 l -0.0049,-0.03 0.04039,0.0174 c 0.02223,0.01 0.0469,0.0179 0.05486,0.0185 0.008,5.3e-4 0.01447,0.004 0.01447,0.007 0,0.006 0.04095,0.0194 0.05168,0.017 0.0034,-7.9e-4 0.0062,0.002 0.0062,0.006 0,0.007 0.03933,0.0215 0.05168,0.0188 0.0034,-8e-4 0.0062,0.002 0.0062,0.006 0,0.007 0.03933,0.0215 0.05168,0.0188 0.0034,-8e-4 0.0062,0.002 0.0062,0.005 0,0.006 0.05553,0.0298 0.06614,0.0285 0.0024,-2.6e-4 0.006,0.002 0.0083,0.005 0.0024,0.003 0.03762,0.0198 0.07855,0.0372 0.04093,0.0174 0.103248,0.0464 0.138493,0.0645 0.03524,0.0181 0.06408,0.0305 0.06408,0.0276 0,-0.003 0.0059,5.2e-4 0.01307,0.008 0.0072,0.007 0.01648,0.011 0.02066,0.008 0.0042,-0.003 0.0076,-5.3e-4 0.0076,0.005 0,0.005 0.0037,0.007 0.0083,0.004 0.0046,-0.003 0.0083,-0.001 0.0083,0.003 0,0.005 0.0078,0.0107 0.01723,0.0137 0.01341,0.004 0.01611,0.01 0.01217,0.0256 -0.007,0.0277 -0.04064,0.098 -0.0708,0.14777 -0.01378,0.0227 -0.02729,0.0478 -0.03001,0.0558 -0.0027,0.008 -0.0074,0.0145 -0.01035,0.0145 -0.003,0 -0.01463,0.0176 -0.0259,0.039 -0.01127,0.0215 -0.02697,0.0463 -0.03487,0.0552 -0.0079,0.009 -0.01672,0.0236 -0.0196,0.0327 -0.0029,0.009 -0.01172,0.0235 -0.01966,0.032 -0.0079,0.009 -0.02143,0.0293 -0.02999,0.0461 -0.0086,0.0169 -0.01836,0.0319 -0.02177,0.0334 -0.0034,0.002 -0.0062,0.008 -0.0062,0.0138 0,0.006 -0.0031,0.0123 -0.007,0.0138 -0.0095,0.004 -0.257601,0.37656 -0.257601,0.3871 0,0.005 -0.0037,0.008 -0.0083,0.008 -0.0046,0 -0.0083,0.005 -0.0083,0.0115 0,0.006 -0.0058,0.0138 -0.01291,0.0165 -0.0071,0.003 -0.01061,0.009 -0.0078,0.0133 0.0028,0.005 0.0019,0.008 -0.0024,0.008 -0.0066,0 -0.05945,0.073 -0.06858,0.0948 -0.0019,0.004 -0.01093,0.0162 -0.02019,0.0262 -0.0093,0.01 -0.02228,0.0287 -0.02892,0.0416 -0.0067,0.0129 -0.01683,0.0265 -0.02262,0.0302 -0.0058,0.004 -0.0084,0.0102 -0.0057,0.0145 0.0026,0.004 0.0013,0.008 -0.0029,0.008 -0.009,0 -0.05567,0.0674 -0.05301,0.0765 0.0011,0.003 -0.0013,0.006 -0.0054,0.006 -0.0089,0 -0.09679,0.12569 -0.09399,0.13436 0.0011,0.003 -0.0011,0.006 -0.005,0.006 -0.0039,0 -0.027,0.0279 -0.05139,0.062 -0.04538,0.0634 -0.04906,0.0675 -0.04906,0.0545 z"
         id="path4684" />
      <path
         style="opacity:0.99299999;fill:#000000;fill-opacity:0.96482412;stroke:#000000;stroke-width:0.00828125;stroke-miterlimit:4;stroke-dasharray:none;stroke-dashoffset:0;stroke-opacity:0"
         d="m 92.038249,166.72141 c 1.9e-5,-0.004 0.008,-0.0207 0.01773,-0.0366 0.04564,-0.0747 0.26457,-0.48134 0.32271,-0.59945 0.148714,-0.3021 0.150159,-0.39755 0.0077,-0.51035 -0.06216,-0.0492 -0.08543,-0.0747 -0.05179,-0.0567 0.0094,0.005 0.04244,0.008 0.0733,0.008 0.07178,-0.002 0.113207,0.005 0.158615,0.0285 0.07059,0.036 0.08555,0.0864 0.0571,0.19209 -0.01833,0.0681 -0.08824,0.21437 -0.158075,0.33073 -0.07211,0.12014 -0.230325,0.36334 -0.238466,0.36656 -0.0038,0.002 -0.007,0.008 -0.007,0.0138 0,0.006 -0.003,0.0123 -0.0068,0.0138 -0.01037,0.004 -0.07743,0.10607 -0.07001,0.10636 0.0036,1.4e-4 -8.2e-5,0.004 -0.0081,0.009 -0.008,0.005 -0.01249,0.012 -0.0098,0.0163 0.0026,0.004 0.0011,0.008 -0.0038,0.008 -0.0088,0 -0.03899,0.0516 -0.03299,0.0564 0.0019,0.002 -0.0032,0.006 -0.0113,0.0109 -0.008,0.004 -0.01318,0.0107 -0.0114,0.0139 0.0019,0.003 -0.0037,0.0129 -0.01222,0.0216 -0.0085,0.009 -0.01548,0.0125 -0.01545,0.008 z"
         id="path4686" />
      <path
         style="opacity:0.99299999;fill:#000000;fill-opacity:0.96482412;stroke:#000000;stroke-width:0.00828125;stroke-miterlimit:4;stroke-dasharray:none;stroke-dashoffset:0;stroke-opacity:0"
         d="m 91.46771,165.90204 c -0.01,-0.0786 -0.0094,-0.0858 0.01598,-0.22181 0.02172,-0.1162 0.03066,-0.14739 0.05157,-0.17997 0.05428,-0.0846 0.18696,-0.18129 0.321045,-0.23397 l 0.05375,-0.0211 0.09031,0.0362 c 0.06782,0.0272 0.0908,0.0402 0.09228,0.0522 0.0042,0.0338 0.01169,0.0563 0.02066,0.0618 0.02381,0.0147 -0.01148,0.0124 -0.07924,-0.005 -0.162703,-0.0421 -0.307076,-0.0153 -0.396028,0.0737 -0.06199,0.062 -0.08571,0.13188 -0.125529,0.36992 -0.01249,0.0746 -0.02537,0.13881 -0.02861,0.14257 -0.0033,0.004 -0.01056,-0.0297 -0.01622,-0.0744 z"
         id="path4688" />
      <path
         style="opacity:0.99299999;fill:#000000;fill-opacity:0.96482412;stroke:#000000;stroke-width:0.00828125;stroke-miterlimit:4;stroke-dasharray:none;stroke-dashoffset:0;stroke-opacity:0"
         d="m 91.347012,166.51891 c 5.29e-4,-0.0224 0.004,-0.0407 0.0079,-0.0408 0.0039,-3e-5 0.0055,-0.0111 0.0035,-0.0247 -0.0021,-0.0135 -7.94e-4,-0.0256 0.0028,-0.0269 0.0035,-0.001 0.0081,-0.0227 0.01008,-0.0477 0.0021,-0.025 0.0063,-0.0519 0.0094,-0.0597 0.0032,-0.008 0.0041,-0.019 0.0019,-0.0248 -0.0021,-0.006 -7.93e-4,-0.0167 0.0031,-0.0242 0.0038,-0.007 0.0093,-0.0354 0.0122,-0.062 0.0029,-0.0266 0.0062,-0.0577 0.0075,-0.0691 0.0013,-0.0114 0.0049,-0.0272 0.0083,-0.0353 0.0033,-0.008 0.0041,-0.022 0.0019,-0.031 -0.0024,-0.009 -5.29e-4,-0.0164 0.0041,-0.0164 0.0047,0 0.0069,-0.0126 0.005,-0.0289 -0.0019,-0.0159 -7.94e-4,-0.0289 0.0024,-0.0289 0.0031,0 0.01066,-0.0381 0.01677,-0.0848 l 0.01111,-0.0847 0.0079,0.0661 c 0.01333,0.11176 0.01,0.18269 -0.0181,0.38448 -0.01487,0.10686 -0.02879,0.20174 -0.03091,0.21083 -0.0021,0.009 -0.0182,0.0284 -0.03576,0.0428 l -0.03191,0.0263 z"
         id="path4690" />
      <path
         style="opacity:0.99299999;fill:#000000;fill-opacity:0.96482412;stroke:#000000;stroke-width:0.00828125;stroke-miterlimit:4;stroke-dasharray:none;stroke-dashoffset:0;stroke-opacity:0"
         d="m 91.401257,165.6481 c -0.0011,-0.0282 0.09582,-0.61693 0.101396,-0.61693 0.0037,0 0.116726,0.0418 0.251227,0.0928 l 0.244549,0.0928 -0.04317,0.0109 c -0.04315,0.0109 -0.04321,0.0109 -0.164073,-0.0344 -0.163264,-0.0612 -0.165103,-0.0613 -0.191911,-0.008 -0.01177,0.0232 -0.03736,0.10877 -0.05687,0.19017 -0.0195,0.0814 -0.04547,0.17775 -0.05769,0.21413 l -0.02223,0.0661 -0.03046,0.001 c -0.01728,5.3e-4 -0.0306,-0.003 -0.03077,-0.008 z"
         id="path4692" />
      <path
         style="opacity:0.99299999;fill:#000000;fill-opacity:0.96482412;stroke:#000000;stroke-width:0.00828125;stroke-miterlimit:4;stroke-dasharray:none;stroke-dashoffset:0;stroke-opacity:0"
         d="m 91.521788,165.48539 c 0.0035,-0.0156 0.0074,-0.0358 0.0086,-0.0449 0.0011,-0.009 0.0029,-0.0165 0.0039,-0.0165 0.0011,0 0.0029,-0.007 0.0043,-0.0165 0.0067,-0.0441 0.04764,-0.1859 0.06264,-0.21708 0.01749,-0.0364 0.04734,-0.0529 0.06719,-0.0371 0.0092,0.007 0.05746,0.025 0.08307,0.0305 0.0054,0.001 0.02432,0.009 0.04202,0.0163 0.0177,0.008 0.03909,0.0147 0.04754,0.0154 0.0084,5.3e-4 0.01537,0.004 0.01537,0.008 0,0.004 0.0046,0.006 0.01016,0.004 0.0056,-0.002 0.01418,2.7e-4 0.01913,0.005 0.0062,0.006 -0.02291,0.0242 -0.0949,0.0599 -0.113646,0.0564 -0.182427,0.10719 -0.238752,0.17632 -0.03624,0.0445 -0.03654,0.0447 -0.03016,0.0165 z"
         id="path4694" />
      <path
         style="opacity:0.99299999;fill:#000000;fill-opacity:0.96482412;stroke:#000000;stroke-width:0.00828125;stroke-miterlimit:4;stroke-dasharray:none;stroke-dashoffset:0;stroke-opacity:0"
         d="m 92.003147,165.27695 c -0.0443,-0.0179 -0.07846,-0.036 -0.07591,-0.0401 0.0026,-0.004 0.0081,-0.005 0.01233,-0.003 0.0042,0.003 0.01206,0.002 0.01738,-10e-4 0.01871,-0.0116 0.07948,-0.005 0.100584,0.0102 0.02405,0.0178 0.0395,0.0463 0.03159,0.0582 -0.0033,0.005 -0.03705,-0.005 -0.08598,-0.0244 z"
         id="path4696" />
      <path
         style="opacity:0.99299999;fill:#000000;fill-opacity:0.96482412;stroke:#000000;stroke-width:0.00828125;stroke-miterlimit:4;stroke-dasharray:none;stroke-dashoffset:0;stroke-opacity:0"
         d="m 91.480113,167.46314 c -0.06758,-0.0308 -0.115033,-0.1028 -0.161433,-0.24502 -0.04107,-0.12591 -0.04216,-0.21976 -0.0052,-0.45378 l 0.02854,-0.18093 0.03469,-0.034 0.03469,-0.034 -0.0048,0.0248 c -0.01214,0.0625 -0.02937,0.27796 -0.03275,0.40928 -0.0041,0.15983 -0.0016,0.14363 0.01164,-0.0786 0.01752,-0.29156 0.114507,-0.9885 0.169966,-1.22137 0.03554,-0.14922 0.09298,-0.21645 0.222361,-0.26021 0.02834,-0.01 0.02932,-0.0106 0.0068,-0.007 -0.03981,0.006 -0.09724,0.0357 -0.137036,0.0707 -0.06706,0.059 -0.09498,0.13371 -0.134516,0.35976 -0.01193,0.0682 -0.02387,0.12961 -0.02651,0.13643 -0.0072,0.0185 -0.01778,-0.0449 -0.01834,-0.1095 -5.29e-4,-0.0668 0.03558,-0.2595 0.05886,-0.31368 0.0324,-0.0754 0.16315,-0.18038 0.303463,-0.2436 l 0.07755,-0.0349 0.04234,0.0167 c 0.02328,0.009 0.06246,0.0266 0.08705,0.0387 0.03895,0.0192 0.04657,0.0271 0.05915,0.0613 0.0079,0.0216 0.01201,0.0392 0.009,0.0391 -0.003,-1.2e-4 -0.03703,-0.007 -0.07568,-0.0163 -0.04516,-0.0103 -0.09687,-0.0157 -0.144692,-0.015 l -0.07441,0.001 0.09508,0.006 c 0.116041,0.007 0.220414,0.0392 0.328903,0.10124 0.07926,0.0453 0.167757,0.11156 0.200121,0.14978 0.01146,0.0135 0.02574,0.0305 0.03174,0.0376 0.006,0.007 0.0042,5.3e-4 -0.0041,-0.0149 -0.0083,-0.0154 -0.04026,-0.0498 -0.07108,-0.0765 l -0.05602,-0.0485 h 0.06462 c 0.150387,0 0.233458,0.0496 0.233458,0.13928 0,0.075 -0.07253,0.245 -0.182224,0.42709 -0.0737,0.12235 -0.347477,0.53552 -0.351909,0.53109 -0.0019,-0.002 0.03819,-0.0792 0.08881,-0.17207 0.178363,-0.32721 0.297148,-0.57829 0.296222,-0.62616 -1.46e-4,-0.008 -0.01024,0.0158 -0.02246,0.0521 -0.05937,0.17698 -0.407334,0.82017 -0.601642,1.1121 -0.17449,0.26215 -0.292756,0.37974 -0.372551,0.37043 -0.01495,-0.002 -0.02537,-2.3e-4 -0.02315,0.003 0.0076,0.0123 0.05336,0.007 0.08814,-0.0112 0.07628,-0.0389 0.217032,-0.20183 0.341135,-0.39487 0.02648,-0.0412 0.04955,-0.0735 0.05128,-0.0718 0.0019,0.002 -0.01066,0.0305 -0.02755,0.0639 -0.01688,0.0334 -0.0485,0.10287 -0.07028,0.15429 -0.03823,0.0903 -0.10047,0.18685 -0.210167,0.32611 -0.03713,0.0471 -0.03782,0.0475 -0.08074,0.0474 -0.02389,-1e-4 -0.05811,-0.007 -0.07636,-0.0152 z m -0.06184,-0.15788 c -0.0048,-0.009 -0.01421,-0.0378 -0.02098,-0.0641 -0.01061,-0.0413 -0.01169,-0.043 -0.0079,-0.0119 0.0045,0.037 0.0241,0.0922 0.03272,0.0922 0.0027,0 0.0011,-0.007 -0.0038,-0.0162 z m -0.03561,-0.18857 c -0.0019,-0.0124 -0.0034,-2.7e-4 -0.0033,0.027 4.5e-5,0.0273 0.0016,0.0375 0.0034,0.0226 0.0019,-0.0149 0.0019,-0.0372 -8.5e-5,-0.0496 z m 1.108017,-1.38479 c -0.0019,-0.0148 -0.0033,-0.003 -0.0033,0.0269 0,0.0296 0.0016,0.0417 0.0033,0.0269 0.0019,-0.0148 0.0019,-0.039 0,-0.0538 z"
         id="path4700" />
      <path
         style="opacity:0.99299999;fill:#000000;fill-opacity:0.96482412;stroke:#000000;stroke-width:0.00103516;stroke-miterlimit:4;stroke-dasharray:none;stroke-dashoffset:0;stroke-opacity:0"
         d="m 91.271439,166.99193 c -5.29e-4,-0.002 -0.0011,-0.007 -0.0028,-0.0382 -0.0011,-0.0159 -0.0013,-0.0894 -5.3e-4,-0.108 7.94e-4,-0.0223 0.0057,-0.0683 0.0099,-0.0943 0.0108,-0.0672 0.02909,-0.12376 0.05289,-0.16337 0.0028,-0.005 0.0053,-0.008 0.0056,-0.008 2.64e-4,2.6e-4 -0.0077,0.0526 -0.04612,0.29841 -0.01955,0.12506 -0.01802,0.11583 -0.01884,0.11369 z"
         id="path4702" />
      <path
         style="opacity:0.99299999;fill:#000000;fill-opacity:0.96482412;stroke:#000000;stroke-width:0.00103516;stroke-miterlimit:4;stroke-dasharray:none;stroke-dashoffset:0;stroke-opacity:0"
         d="m 91.374698,166.98987 c 0.0013,-0.11504 0.0088,-0.22704 0.02424,-0.36277 0.0042,-0.0366 0.01392,-0.11427 0.0149,-0.11851 2.65e-4,-0.001 5.8e-5,-0.002 -5.29e-4,-0.003 -5.29e-4,-1.9e-4 1.59e-4,-0.002 0.0016,-0.003 l 0.0026,-0.003 -5.29e-4,0.003 c -7.94e-4,0.004 -0.01103,0.0905 -0.015,0.12557 -0.01056,0.0934 -0.01778,0.17557 -0.0222,0.25322 -0.0013,0.0241 -0.0021,0.0456 -0.0047,0.12144 -7.93e-4,0.0248 -7.93e-4,0.0237 -5.29e-4,-0.0129 z"
         id="path4704" />
      <path
         style="opacity:0.99299999;fill:#000000;fill-opacity:0.96482412;stroke:#000000;stroke-width:0.00103516;stroke-miterlimit:4;stroke-dasharray:none;stroke-dashoffset:0;stroke-opacity:0"
         d="m 91.278951,167.06173 c 0,-7.9e-4 -0.0013,-0.0126 -0.0031,-0.0261 -0.004,-0.0321 -0.0041,-0.0365 -0.0013,-0.0535 2.64e-4,-0.002 7.93e-4,-0.004 7.93e-4,-0.006 2.2e-4,-0.001 7.94e-4,-0.004 0.0011,-0.007 7.93e-4,-0.005 0.0013,-0.008 0.0019,-0.0124 2.46e-4,-0.002 7.93e-4,-0.005 0.0011,-0.006 2.65e-4,-0.002 7.94e-4,-0.005 0.0011,-0.007 7.94e-4,-0.005 0.0016,-0.0108 0.0021,-0.0139 2.49e-4,-0.001 7.94e-4,-0.004 0.0011,-0.006 2.65e-4,-0.002 7.94e-4,-0.005 0.0011,-0.006 2.48e-4,-0.001 7.93e-4,-0.004 0.0011,-0.006 7.94e-4,-0.006 0.0019,-0.0114 0.0021,-0.0142 2.48e-4,-0.001 7.93e-4,-0.004 0.0011,-0.006 2.65e-4,-0.002 7.94e-4,-0.005 0.0011,-0.006 2.49e-4,-0.001 7.94e-4,-0.004 0.0011,-0.007 0.0011,-0.007 0.0019,-0.0113 0.0021,-0.014 2.52e-4,-0.001 7.94e-4,-0.004 0.0011,-0.006 2.64e-4,-0.002 7.93e-4,-0.005 0.0011,-0.007 2.65e-4,-0.002 7.94e-4,-0.005 0.0011,-0.007 2.65e-4,-0.002 7.94e-4,-0.005 0.0011,-0.006 2.43e-4,-0.001 5.29e-4,-0.004 7.93e-4,-0.006 5.3e-4,-0.004 0.0016,-0.007 0.0016,-0.003 0,0.001 -0.0019,0.0146 -0.0041,0.0299 -0.01315,0.0896 -0.01728,0.13533 -0.0163,0.18008 2.64e-4,0.0138 2.64e-4,0.0251 1.4e-4,0.0251 -2.28e-4,0 -5.29e-4,-7.9e-4 -5.29e-4,-0.002 z"
         id="path4706" />
      <path
         style="opacity:0.99299999;fill:#000000;fill-opacity:0.96482412;stroke:#000000;stroke-width:0.04684582;stroke-miterlimit:4;stroke-dasharray:none;stroke-dashoffset:0;stroke-opacity:0"
         d="m 141.06449,180.73523 c -0.79461,-0.14847 -1.4148,-0.286 -1.41486,-0.31374 -1.4e-4,-0.0595 0.50747,-1.24651 0.55274,-1.29258 0.0248,-0.0253 2.10191,1.61603 2.31598,1.83011 0.0637,0.0637 0.18222,0.0819 -1.45386,-0.22379 z"
         id="path4710" />
      <path
         style="opacity:0.99299999;fill:#000000;fill-opacity:0.96482412;stroke:#000000;stroke-width:0.04684582;stroke-miterlimit:4;stroke-dasharray:none;stroke-dashoffset:0;stroke-opacity:0"
         d="m 139.28666,181.23595 c 0.1483,-0.37384 0.19352,-0.46132 0.23931,-0.46295 0.0294,-0.001 0.548,0.0884 1.15253,0.19878 l 1.09915,0.20069 -0.3538,0.0288 c -0.19459,0.0158 -0.76073,0.0444 -1.25809,0.0635 -0.75289,0.0289 -0.90007,0.0241 -0.8791,-0.0288 z"
         id="path4712" />
      <path
         style="opacity:0.99299999;fill:#000000;fill-opacity:0.96482412;stroke:#000000;stroke-width:0.00414063;stroke-miterlimit:4;stroke-dasharray:none;stroke-dashoffset:0;stroke-opacity:0"
         d="m 142.00959,180.92454 c -0.15941,-0.0304 -1.40132,-0.26049 -1.98553,-0.36792 -0.37469,-0.0689 -0.43507,-0.081 -0.43408,-0.0868 0.003,-0.0165 0.60933,-1.42559 0.61322,-1.42467 0.002,5.3e-4 0.44182,0.35636 0.9765,0.79065 0.79059,0.64214 0.97219,0.79145 0.97234,0.79942 1.6e-4,0.009 -0.001,0.009 -0.0215,-0.009 -0.065,-0.0554 -0.48818,-0.39546 -0.75551,-0.60718 -0.67567,-0.53512 -1.15216,-0.89769 -1.17148,-0.89139 -0.0316,0.0103 -0.54843,1.21195 -0.55372,1.28738 -7.9e-4,0.0102 0.002,0.0123 0.0229,0.0208 0.0986,0.0396 0.63126,0.15648 1.23933,0.27191 0.22987,0.0436 1.11642,0.2091 1.18752,0.22163 0.0362,0.006 0.0527,0.011 0.0527,0.0147 0,0.007 0.003,0.008 -0.14263,-0.0199 z"
         id="path4714" />
      <path
         style="opacity:0.99299999;fill:#000000;fill-opacity:0.96482412;stroke:#000000;stroke-width:0.00414063;stroke-miterlimit:4;stroke-dasharray:none;stroke-dashoffset:0;stroke-opacity:0"
         d="m 139.23045,181.30509 c 0.005,-0.0123 0.0626,-0.14582 0.12725,-0.29672 0.0646,-0.15091 0.11982,-0.27527 0.12267,-0.27637 0.005,-0.002 0.35215,0.0615 1.65692,0.30329 0.38654,0.0716 0.73908,0.13687 0.78342,0.14498 0.0443,0.008 0.0819,0.0159 0.0835,0.0173 0.002,10e-4 -0.6058,0.0301 -1.34979,0.0639 -0.74399,0.0337 -1.37096,0.0624 -1.39325,0.0636 l -0.0405,0.002 z m 0.51571,-0.0244 c 0.45758,-0.0131 1.28241,-0.0499 1.5751,-0.0704 0.12464,-0.009 0.43655,-0.0335 0.44594,-0.0355 0.005,-0.001 0.009,-0.003 0.008,-0.004 -0.001,-0.001 -0.91807,-0.16927 -1.33064,-0.24372 -0.5224,-0.0943 -0.88297,-0.15538 -0.91663,-0.15538 -0.0448,0 -0.0854,0.0723 -0.20206,0.3604 -0.0237,0.0584 -0.043,0.10895 -0.043,0.11237 0,0.0359 0.12385,0.0455 0.46302,0.0357 z"
         id="path4716" />
    </g>
  </g>
</svg>
