<?xml version="1.0" encoding="UTF-8" standalone="no"?>
<svg
   xmlns:dc="http://purl.org/dc/elements/1.1/"
   xmlns:cc="http://creativecommons.org/ns#"
   xmlns:rdf="http://www.w3.org/1999/02/22-rdf-syntax-ns#"
   xmlns:svg="http://www.w3.org/2000/svg"
   xmlns="http://www.w3.org/2000/svg"
   id="svg5022"
   version="1.1"
   viewBox="0 0 210 297"
   height="297mm"
   width="210mm">
  <defs
     id="defs5016" />
  <metadata
     id="metadata5019">
    <rdf:RDF>
      <cc:Work
         rdf:about="">
        <dc:format>image/svg+xml</dc:format>
        <dc:type
           rdf:resource="http://purl.org/dc/dcmitype/StillImage" />
        <dc:title></dc:title>
      </cc:Work>
    </rdf:RDF>
  </metadata>
  <g
     id="layer1">
    <path
       id="path5026"
       d="M 29.932683,53.782495 C 29.401149,146.26222 29.401149,146.26222 29.401149,146.26222"
       style="fill:none;stroke:#000000;stroke-width:0.31291005px;stroke-linecap:butt;stroke-linejoin:miter;stroke-opacity:1" />
    <path
       id="path5032"
       d="m 29.934188,71.424519 59.333833,0.534537 v 0 l 0.53454,59.333834 v 0 l -60.937452,0 v 0"
       style="fill:none;stroke:#000000;stroke-width:0.26458332px;stroke-linecap:butt;stroke-linejoin:miter;stroke-opacity:1" />
    <path
       id="path5034"
       d="M 89.268021,71.959056 85.659882,73.16177 V 70.355441 Z"
       style="fill:none;stroke:#000000;stroke-width:0.26458332px;stroke-linecap:butt;stroke-linejoin:miter;stroke-opacity:1" />
    <path
       id="path5036"
       d="m 28.865107,131.29289 4.409948,-1.46998 -0.133633,2.67269 -4.276315,-1.20271 v 0"
       style="fill:none;stroke:#000000;stroke-width:0.26458332px;stroke-linecap:butt;stroke-linejoin:miter;stroke-opacity:1" />
    <path
       transform="scale(0.26458333)"
       id="path5038"
       d="m 118.9203,493.72286 c 6.82674,-2.37952 6.24191,-2.33913 6.05783,-0.41831 l -0.16164,1.68676 -5.05077,0.0987 -5.05076,0.0987 z"
       style="opacity:0.99299999;fill:#000000;fill-opacity:0.96482412;stroke:#000000;stroke-width:0.50587165;stroke-miterlimit:4;stroke-dasharray:none;stroke-dashoffset:0;stroke-opacity:0" />
    <path
       transform="scale(0.26458333)"
       id="path5040"
       d=""
       style="opacity:0.99299999;fill:#000000;fill-opacity:0.96482412;stroke:#000000;stroke-width:0.50587165;stroke-miterlimit:4;stroke-dasharray:none;stroke-dashoffset:0;stroke-opacity:0" />
    <path
       transform="scale(0.26458333)"
       id="path5042"
       d="m 118.72823,493.55486 c 3.55183,-1.18502 6.46436,-2.14809 6.4723,-2.14015 0.0117,0.0117 -0.14166,3.31963 -0.18968,4.09178 l -0.0128,0.20648 -6.36382,-0.002 -6.36382,-0.002 z m 1.64137,1.53296 c 2.44118,-0.0473 4.44271,-0.0901 4.44783,-0.0953 0.005,-0.005 0.0495,-0.4252 0.0986,-0.9335 0.0491,-0.50831 0.10498,-1.04976 0.12421,-1.20322 0.0524,-0.41821 0.0509,-0.68816 -0.004,-0.78296 -0.079,-0.13531 -0.16777,-0.17686 -0.37778,-0.17686 -0.46195,0 -1.08341,0.18915 -4.19559,1.27695 -0.98214,0.34329 -2.66367,0.93004 -3.73672,1.3039 -1.07306,0.37386 -1.96703,0.68961 -1.98661,0.70166 -0.0235,0.0145 0.17269,0.0174 0.57824,0.009 0.33761,-0.007 2.61117,-0.052 5.05236,-0.0993 z"
       style="opacity:0.99299999;fill:#000000;fill-opacity:0.96482412;stroke:#000000;stroke-width:0.02235658;stroke-miterlimit:4;stroke-dasharray:none;stroke-dashoffset:0;stroke-opacity:0" />
    <path
       transform="scale(0.26458333)"
       id="path5044"
       d="m 118.84289,498.4361 c -3.2601,-0.91704 -5.94202,-1.67307 -5.95982,-1.68008 -0.0178,-0.007 2.68992,-0.0135 6.01713,-0.0145 l 6.04948,-0.002 -0.0817,1.63505 c -0.0449,0.89927 -0.0853,1.6561 -0.0897,1.68184 -0.008,0.0443 -0.32511,-0.0424 -5.93544,-1.62054 z"
       style="opacity:0.99299999;fill:#000000;fill-opacity:0.96482412;stroke:#000000;stroke-width:0.02235658;stroke-miterlimit:4;stroke-dasharray:none;stroke-dashoffset:0;stroke-opacity:0" />
    <path
       transform="scale(0.26458333)"
       id="path5046"
       d="m 330.14719,271.3988 c -2.51315,-0.0242 -4.8659,-0.0445 -5.22833,-0.0452 l -0.65897,-10e-4 v -2.32977 c 0,-1.85741 0.004,-2.32821 0.0197,-2.32207 0.0172,0.007 10.44534,4.64154 10.61055,4.7159 l 0.0631,0.0284 -0.11838,-0.001 c -0.0651,-5.9e-4 -2.17459,-0.0208 -4.68774,-0.045 z"
       style="opacity:0.99299999;fill:#000000;fill-opacity:0.96482412;stroke:#000000;stroke-width:0.01580849;stroke-miterlimit:4;stroke-dasharray:none;stroke-dashoffset:0;stroke-opacity:0" />
    <path
       transform="scale(0.26458333)"
       id="path5048"
       d="m 324.25989,274.08037 v -1.723 l 0.89573,0.01 c 0.49264,0.005 2.71399,0.0247 4.93633,0.043 2.22233,0.0183 4.07967,0.0373 4.12742,0.0422 0.084,0.009 -0.0727,0.0622 -4.92448,1.67999 -2.7562,0.91903 -5.01662,1.67096 -5.02314,1.67096 -0.007,0 -0.0119,-0.77535 -0.0119,-1.723 z"
       style="opacity:0.99299999;fill:#000000;fill-opacity:0.96482412;stroke:#000000;stroke-width:0.01580849;stroke-miterlimit:4;stroke-dasharray:none;stroke-dashoffset:0;stroke-opacity:0" />
    <text
       id="text5052"
       y="68.702377"
       x="44.790176"
       style="font-style:normal;font-weight:normal;font-size:10.58333302px;line-height:1.25;font-family:sans-serif;letter-spacing:0px;word-spacing:0px;fill:#000000;fill-opacity:1;stroke:none;stroke-width:0.26458332"
       xml:space="preserve"><tspan
         style="font-size:8.46666622px;stroke-width:0.26458332"
         y="68.702377"
         x="44.790176"
         id="tspan5050">fork(2)</tspan></text>
    <text
       id="text5056"
       y="128.04463"
       x="44.223217"
       style="font-style:normal;font-weight:normal;font-size:10.58333302px;line-height:1.25;font-family:sans-serif;letter-spacing:0px;word-spacing:0px;fill:#000000;fill-opacity:1;stroke:none;stroke-width:0.26458332"
       xml:space="preserve"><tspan
         style="font-size:8.46666622px;stroke-width:0.26458332"
         y="128.04463"
         x="44.223217"
         id="tspan5054">wait(2)</tspan></text>
    <text
       id="text5060"
       y="103.09821"
       x="95.438988"
       style="font-style:normal;font-weight:normal;font-size:10.58333302px;line-height:1.25;font-family:sans-serif;letter-spacing:0px;word-spacing:0px;fill:#000000;fill-opacity:1;stroke:none;stroke-width:0.26458332"
       xml:space="preserve"><tspan
         style="font-size:8.46666622px;stroke-width:0.26458332"
         y="103.09821"
         x="95.438988"
         id="tspan5058">exec(2)</tspan></text>
    <text
       id="text5064"
       y="123.8869"
       x="95.061012"
       style="font-style:normal;font-weight:normal;font-size:10.58333302px;line-height:1.25;font-family:sans-serif;letter-spacing:0px;word-spacing:0px;fill:#000000;fill-opacity:1;stroke:none;stroke-width:0.26458332"
       xml:space="preserve"><tspan
         style="font-size:8.46666622px;stroke-width:0.26458332"
         y="123.8869"
         x="95.061012"
         id="tspan5062">_exit(2)</tspan></text>
    <text
       id="text5068"
       y="81.553574"
       x="139.44612"
       style="font-style:normal;font-weight:normal;font-size:10.58333302px;line-height:1.25;font-family:sans-serif;letter-spacing:0px;word-spacing:0px;fill:#000000;fill-opacity:1;stroke:none;stroke-width:0.26458332"
       xml:space="preserve"><tspan
         id="tspan5070"
         style="font-size:6.3499999px;text-align:center;text-anchor:middle;stroke-width:0.26458332"
         y="81.553574"
         x="139.44612">Действия над процессами</tspan></text>
  </g>
</svg>
